PathFileType	4	(X/Y/Z)	C:/Users/opensim2020/Desktop/walking_exp_matlab/subject03_walking15_straight_03.trc	
DataRate	CameraRate	NumFrames	NumMarkers	Units	OrigDataRate	OrigDataStartFrame	OrigNumFrames	
100.00	100.00	4	47	mm	100.00	1604	220	
Frame#	Time	LFHD			RFHD			LBHD			RBHD			C7			T10			CLAV			STRN			RBAK			LSHO			LUPA			LELB			LFRM			LWRA			LWRB			LFIN			RSHO			RUPA			RELB			RFRM			RWRA			RWRB			RFIN			LASI			RASI			LPSI			RPSI			LTHI			LKNE			LTIB			LANK			LHEE			LTOE			RTHI			RKNE			RTIB			RANK			RHEE			RTOE			*39			*40			*41			*42			*43			*44			*45			*46			
		X1	Y1	Z1	X2	Y2	Z2	X3	Y3	Z3	X4	Y4	Z4	X5	Y5	Z5	X6	Y6	Z6	X7	Y7	Z7	X8	Y8	Z8	X9	Y9	Z9	X10	Y10	Z10	X11	Y11	Z11	X12	Y12	Z12	X13	Y13	Z13	X14	Y14	Z14	X15	Y15	Z15	X16	Y16	Z16	X17	Y17	Z17	X18	Y18	Z18	X19	Y19	Z19	X20	Y20	Z20	X21	Y21	Z21	X22	Y22	Z22	X23	Y23	Z23	X24	Y24	Z24	X25	Y25	Z25	X26	Y26	Z26	X27	Y27	Z27	X28	Y28	Z28	X29	Y29	Z29	X30	Y30	Z30	X31	Y31	Z31	X32	Y32	Z32	X33	Y33	Z33	X34	Y34	Z34	X35	Y35	Z35	X36	Y36	Z36	X37	Y37	Z37	X38	Y38	Z38	X39	Y39	Z39	X40	Y40	Z40	X41	Y41	Z41	X42	Y42	Z42	X43	Y43	Z43	X44	Y44	Z44	X45	Y45	Z45	X46	Y46	Z46	X47	Y47	Z47	

28	0.270	1362.83972	-1037.71301	1612.41211	1494.90759	-1027.94702	1615.74243	1375.77734	-1157.72620	1550.45520	1505.81030	-1143.15198	1553.92493	1431.38818	-1164.18982	1404.39453	1441.51514	-1229.90466	1102.97058	1418.46094	-1044.71545	1322.69373	1408.87793	-1019.40186	1151.97839	1537.03943	-1214.69666	1238.21106	1267.45105	-1103.24304	1364.86938	1194.09070	-1165.36340	1176.96448	1174.78564	-1193.46777	1058.44824	1161.46387	-1208.76746	929.50433	1179.15356	-1226.91431	807.71075	1133.71692	-1255.10791	827.34723	1141.14038	-1281.45337	743.72455	1581.69189	-1069.87720	1349.69031	1663.10974	-1069.88782	1133.00220	1678.19470	-1053.95642	1020.91650	1680.56042	-1031.44678	886.12225	1640.55139	-1001.93109	792.10675	1688.98938	-1025.15161	786.18481	1674.01831	-1001.95508	715.45471	1312.36353	-1097.94873	931.89056	1542.58289	-1081.92200	914.34717	1368.84424	-1255.22668	963.50537	1518.81213	-1239.35876	964.89514	1265.37097	-1101.36011	636.27521	1312.46814	-1053.62817	469.62155	1324.73621	-1103.29382	274.34906	1380.58264	-1122.77893	69.12827	1423.75012	-1162.56958	36.53385	1388.15344	-972.74237	37.50879	1603.23682	-1178.15039	627.43274	1587.32227	-1193.29321	446.53217	1603.28040	-1345.09692	324.39771	1574.61267	-1504.89453	173.63547	1528.60168	-1555.04358	193.74632	1525.89978	-1467.04919	37.36097																								 
29	0.280	1361.83728	-1027.89441	1613.42297	1493.73413	-1018.25153	1616.44031	1374.54846	-1147.91187	1551.41211	1504.64258	-1133.51611	1554.72571	1429.30188	-1154.79553	1405.02551	1440.03088	-1219.80408	1103.73254	1417.47888	-1034.80273	1323.72229	1408.40308	-1009.14063	1152.92114	1535.14697	-1205.46289	1239.26685	1266.09375	-1091.94531	1365.54797	1193.08447	-1151.55042	1176.73120	1174.87500	-1178.03955	1057.55212	1162.72058	-1192.19324	928.30609	1181.69202	-1209.53186	806.56470	1135.61401	-1236.63245	825.24628	1143.99854	-1263.36804	741.64758	1580.52014	-1061.70911	1351.26965	1662.00903	-1063.46570	1134.36218	1677.34863	-1048.67883	1022.17914	1680.47778	-1027.96680	887.06213	1641.43628	-999.27972	792.33411	1689.64417	-1023.24530	787.04779	1675.55591	-1001.21509	715.65259	1311.05933	-1088.23254	932.74640	1541.38794	-1072.00623	915.46564	1368.24207	-1245.18835	964.44086	1518.15271	-1229.49194	965.40833	1264.89783	-1095.99756	635.78430	1312.07556	-1050.12585	468.90421	1324.24170	-1101.14050	274.12573	1380.41833	-1122.81958	69.08886	1423.54468	-1162.54980	36.12361	1388.13977	-972.80414	37.34668	1602.23975	-1160.67944	625.55792	1586.01672	-1170.65051	444.71017	1602.69922	-1322.41064	324.57132	1575.29639	-1487.17432	180.02869	1531.63184	-1537.45593	204.18991	1524.75879	-1458.08289	43.20548																								 
30	0.290	1360.83691	-1018.08423	1614.52808	1492.89685	-1008.48535	1617.45300	1373.32007	-1138.05591	1552.30383	1503.45166	-1123.84424	1555.55432	1427.23877	-1145.23718	1405.64209	1438.75415	-1209.80383	1104.53088	1416.67798	-1024.94482	1324.55908	1408.09668	-998.84467	1154.01941	1533.12878	-1196.38403	1240.23096	1264.90723	-1080.61243	1366.02783	1192.11011	-1137.36304	1176.15479	1174.76135	-1162.64172	1056.49976	1163.95569	-1175.17395	927.02289	1184.47705	-1192.55835	804.75543	1137.08044	-1217.81348	823.15710	1146.65381	-1244.07141	739.22925	1579.55945	-1053.37207	1352.67737	1661.03845	-1057.09985	1135.65393	1676.62268	-1043.48804	1023.39050	1680.81873	-1024.05847	887.78052	1642.42053	-996.56451	792.56799	1690.24414	-1021.24219	787.86066	1676.71521	-1000.53369	715.87152	1309.86169	-1078.45618	933.40906	1540.28186	-1063.05090	916.17786	1367.73254	-1235.21143	965.36652	1517.47583	-1219.82837	965.84253	1264.04919	-1091.67358	635.03864	1311.69275	-1046.52539	468.30136	1323.83301	-1099.12109	273.93036	1380.18188	-1122.87500	69.05856	1423.14233	-1162.74280	36.10620	1388.04346	-972.92603	37.23518	1601.34375	-1143.74182	624.14813	1584.31177	-1147.60559	443.21262	1602.12231	-1298.74634	324.47119	1575.02490	-1468.79578	186.74924	1532.29993	-1519.00244	213.05809	1524.50183	-1443.61108	49.44943																								 
31	0.300	1359.76746	-1008.37616	1615.53491	1491.75586	-998.88892	1618.50281	1372.14758	-1128.18506	1553.29639	1502.26392	-1114.16296	1556.47461	1425.30396	-1135.70642	1406.55139	1437.62756	-1199.96765	1105.51245	1416.16492	-1014.90277	1325.58228	1407.91760	-988.84918	1154.91833	1530.94751	-1187.50024	1241.23389	1263.73840	-1069.30750	1366.57751	1191.15833	-1123.20984	1175.58801	1174.88708	-1146.86340	1055.30444	1165.30957	-1157.62524	925.58459	1186.96936	-1173.71924	803.46997	1138.99097	-1197.97180	820.70490	1149.31165	-1223.83594	736.63843	1578.74158	-1044.80188	1353.92346	1660.17249	-1050.88379	1136.81152	1676.07764	-1038.46045	1024.48608	1680.97021	-1020.60278	888.64587	1643.44543	-993.70215	792.85364	1690.91187	-1019.17780	788.68457	1677.97717	-999.83142	716.23175	1308.82141	-1068.76135	933.88599	1539.58167	-1054.44397	916.70355	1367.11255	-1225.46338	966.39252	1516.80225	-1210.29626	966.10602	1263.62769	-1087.14307	634.84259	1311.31152	-1043.29810	467.51413	1323.53247	-1097.54053	273.88889	1380.00732	-1123.08215	69.02523	1423.08264	-1162.86926	36.01682	1387.94727	-973.12732	37.17759	1599.77197	-1126.85315	623.05646	1582.50903	-1124.17981	442.29086	1600.19385	-1274.23633	324.62076	1573.80188	-1449.50879	193.58075	1530.88757	-1500.03223	219.74405	1524.62939	-1425.16943	55.48458																								 
